<?xml version="1.0" encoding="utf-8"?>
<!-- Generator: Adobe Illustrator 16.0.0, SVG Export Plug-In . SVG Version: 6.00 Build 0)  -->
<!DOCTYPE svg PUBLIC "-//W3C//DTD SVG 1.1//EN" "http://www.w3.org/Graphics/SVG/1.1/DTD/svg11.dtd">
<svg version="1.1" id="Layer_1" xmlns="http://www.w3.org/2000/svg" xmlns:xlink="http://www.w3.org/1999/xlink" x="0px" y="0px"
	 width="155px" height="42px" viewBox="0 0 155 42" enable-background="new 0 0 155 42" xml:space="preserve">
<g>
	<g>
	</g>
	<g>
		<g>
			<path fill="#24CE60" d="M28.917,2.376h-3.813l7.843,15.333l-3.921,8.009h4.616c0.69,0,1.32-0.394,1.624-1.014l2.764-5.644
				c0.417-0.851,0.408-1.849-0.024-2.693L31.729,4.096C31.188,3.04,30.103,2.376,28.917,2.376z"/>
			<linearGradient id="SVGID_1_" gradientUnits="userSpaceOnUse" x1="23.0972" y1="10.2676" x2="34.45" y2="17.0651">
				<stop  offset="0" style="stop-color:#8A0BFF;stop-opacity:0"/>
				<stop  offset="0.9997" style="stop-color:#2A0056"/>
			</linearGradient>
			<path fill="url(#SVGID_1_)" d="M28.917,2.376h-3.813l7.843,15.333l-3.921,8.009h4.616c0.69,0,1.32-0.394,1.624-1.014l2.764-5.644
				c0.417-0.851,0.408-1.849-0.024-2.693L31.729,4.096C31.188,3.04,30.103,2.376,28.917,2.376z"/>
			<path fill="#7CED94" d="M31.729,4.096c3.126,6.112,3.371,9.216,1.218,13.613l-3.921,8.009h4.616c0.69,0,1.32-0.394,1.624-1.014
				l2.764-5.644c0.417-0.851,0.408-1.849-0.024-2.693L31.729,4.096z"/>
			<linearGradient id="SVGID_2_" gradientUnits="userSpaceOnUse" x1="26.8877" y1="15.8887" x2="38.6265" y2="21.6635">
				<stop  offset="0" style="stop-color:#8A0BFF"/>
				<stop  offset="0.9994" style="stop-color:#2A0056;stop-opacity:0"/>
			</linearGradient>
			<path opacity="0.42" fill="url(#SVGID_2_)" d="M38.005,16.368l-1.771-3.462c0.121,1.983-0.358,3.792-1.389,5.896l-3.386,6.915
				h2.182c0.69,0,1.32-0.394,1.624-1.014l2.764-5.644C38.446,18.21,38.438,17.212,38.005,16.368z"/>
		</g>
		<g>
			<path fill="#FFC239" d="M31.501,39.625h3.813l-7.843-15.333l3.921-8.01h-4.617c-0.69,0-1.32,0.394-1.624,1.014l-2.763,5.643
				c-0.417,0.851-0.408,1.85,0.024,2.693l6.276,12.271C29.229,38.961,30.314,39.625,31.501,39.625z"/>
			<linearGradient id="SVGID_3_" gradientUnits="userSpaceOnUse" x1="22.082" y1="27.9531" x2="35.314" y2="27.9531">
				<stop  offset="0" style="stop-color:#0A0A0A"/>
				<stop  offset="1" style="stop-color:#F78E1E"/>
			</linearGradient>
			<path fill="url(#SVGID_3_)" d="M31.501,39.625h3.813l-7.843-15.333l3.921-8.01h-4.617c-0.691,0-1.32,0.394-1.624,1.014
				l-2.763,5.643c-0.417,0.851-0.408,1.85,0.024,2.693l6.276,12.271C29.229,38.961,30.315,39.625,31.501,39.625z"/>
			<path fill="#F96C26" d="M28.688,37.904c-3.126-6.111-3.37-9.215-1.217-13.612l3.921-8.01h-4.617c-0.69,0-1.32,0.394-1.624,1.014
				l-2.763,5.643c-0.417,0.851-0.408,1.85,0.024,2.693L28.688,37.904z"/>
			
				<linearGradient id="SVGID_4_" gradientUnits="userSpaceOnUse" x1="264.9121" y1="79.0391" x2="276.6483" y2="84.8126" gradientTransform="matrix(-1 0 0 -1 298.4395 105.1504)">
				<stop  offset="0" style="stop-color:#8A0BFF"/>
				<stop  offset="0.9994" style="stop-color:#2A0056;stop-opacity:0"/>
			</linearGradient>
			<path opacity="0.32" fill="url(#SVGID_4_)" d="M22.412,25.633l1.771,3.462c-0.121-1.982,0.359-3.791,1.389-5.896l3.386-6.916
				h-2.183c-0.69,0-1.32,0.394-1.624,1.014l-2.763,5.643C21.971,23.79,21.98,24.789,22.412,25.633z"/>
		</g>
		<g>
			<path fill="#24CE60" d="M35.533,2.375H31.72l7.842,15.333l-3.921,8.01h4.617c0.691,0,1.32-0.394,1.624-1.014l2.764-5.644
				c0.417-0.851,0.408-1.849-0.023-2.693L38.344,4.095C37.805,3.04,36.718,2.375,35.533,2.375z"/>
			<linearGradient id="SVGID_5_" gradientUnits="userSpaceOnUse" x1="29.7139" y1="10.2686" x2="41.0656" y2="17.0654">
				<stop  offset="0" style="stop-color:#8A0BFF;stop-opacity:0"/>
				<stop  offset="0.9997" style="stop-color:#2A0056"/>
			</linearGradient>
			<path fill="url(#SVGID_5_)" d="M35.533,2.375H31.72l7.842,15.333l-3.921,8.01h4.617c0.691,0,1.32-0.394,1.624-1.014l2.764-5.644
				c0.417-0.851,0.408-1.849-0.023-2.693L38.344,4.095C37.805,3.04,36.718,2.375,35.533,2.375z"/>
			<path fill="#7CED94" d="M38.344,4.095c3.126,6.112,3.371,9.216,1.218,13.613l-3.921,8.01h4.617c0.691,0,1.32-0.394,1.624-1.014
				l2.764-5.644c0.417-0.851,0.408-1.849-0.023-2.693L38.344,4.095z"/>
			<linearGradient id="SVGID_6_" gradientUnits="userSpaceOnUse" x1="33.5068" y1="15.8896" x2="45.243" y2="21.6632">
				<stop  offset="0" style="stop-color:#8A0BFF"/>
				<stop  offset="0.9994" style="stop-color:#2A0056;stop-opacity:0"/>
			</linearGradient>
			<path opacity="0.42" fill="url(#SVGID_6_)" d="M44.622,16.368l-1.771-3.461c0.121,1.983-0.358,3.792-1.389,5.896l-3.386,6.915
				h2.182c0.691,0,1.32-0.394,1.624-1.014l2.764-5.644C45.062,18.21,45.053,17.212,44.622,16.368z"/>
		</g>
	</g>
	<text transform="matrix(1 0 0 1 50.4546 30.6758)" font-family="'AgencyFB-Bold'" font-size="24.0643" letter-spacing="4">Passer</text>
</g>
</svg>
